<svg version="1.1" xmlns="http://www.w3.org/2000/svg" xmlns:xlink="http://www.w3.org/1999/xlink" width="96.16999816894531" height="35.84000015258789"><defs></defs><g transform="translate(-47.88349533081055,16.360076904296875)"><rect fill="rgb(255,255,255)" stroke="none" x="0" y="0" width="96.16999816894531" height="35.84000015258789" fill-opacity="0" transform="translate(47.88349533081055,-16.360076904296875)"></rect><g transform="translate(48.08349609375,17.919921875) rotate(0,0,0) translate(-48.08349609375,-17.919921875) matrix(1,0,0,1,48.08349609375,17.919921875)"><path fill="rgb(0,178,255)" fill-opacity="1" d="M34.01-18.09L34.01-18.09Q34.01-15.06 33.00-12.44Q31.98-9.81 30.26-7.63Q28.54-5.44 26.25-3.75Q23.95-2.05 21.37-0.88Q18.80 0.29 16.10 0.90Q13.40 1.51 10.86 1.51L10.86 1.51Q10.62 1.54 9.97 1.54Q9.33 1.54 8.47 1.55Q7.62 1.56 6.62 1.56Q5.62 1.56 4.66 1.56Q3.71 1.56 2.88 1.55Q2.05 1.54 1.51 1.51L1.51 1.51Q1.93 1.51 2.25 1.29Q2.56 1.07 2.80 0.71Q3.03 0.34 3.19-0.13Q3.34-0.61 3.47-1.10L3.47-1.10Q3.71-2.27 3.76-3.74L3.76-3.74Q3.76-5.54 3.81-9.11L3.81-9.11Q3.83-10.62 3.86-12.68Q3.88-14.75 3.93-17.42Q3.98-20.09 4.04-23.44Q4.10-26.78 4.17-30.88L4.17-30.88Q3.10-30.76 2.04-30.70Q0.98-30.64-0.20-30.69L-0.20-30.69L4.37-33.69Q5.49-33.54 6.69-33.50Q7.89-33.45 9.06-33.45L9.06-33.45Q11.21-33.45 13.02-33.62Q14.84-33.79 16.63-33.79L16.63-33.79Q18.24-33.79 20.15-33.53Q22.07-33.28 24.00-32.60Q25.93-31.93 27.73-30.81Q29.54-29.69 30.93-27.94Q32.32-26.20 33.17-23.77Q34.01-21.34 34.01-18.09ZM7.86-5.22L7.86-5.22Q7.79-4.47 7.54-3.76L7.54-3.76Q7.35-3.15 6.97-2.47Q6.59-1.78 5.96-1.29L5.96-1.29Q9.35-1.12 11.55-1.07Q13.75-1.03 15.06-1.03L15.06-1.03Q18.43-1.03 21.12-2.23Q23.80-3.44 25.67-5.51Q27.54-7.57 28.53-10.30Q29.52-13.04 29.52-16.09L29.52-16.09Q29.52-19.09 28.72-21.42Q27.93-23.75 26.61-25.50Q25.29-27.25 23.61-28.44Q21.92-29.64 20.15-30.38Q18.38-31.13 16.65-31.46Q14.92-31.79 13.53-31.79L13.53-31.79Q12.08-31.79 10.84-31.69Q9.59-31.59 8.42-31.45L8.42-31.45Q8.35-27.00 8.29-23.52Q8.23-20.04 8.18-17.37Q8.13-14.70 8.08-12.76Q8.03-10.82 8.01-9.47L8.01-9.47Q7.91-6.32 7.86-5.22ZM61.67-24.68L61.67-24.68Q61.47-22.85 60.69-21.47Q59.91-20.09 58.81-19.04Q57.71-17.99 56.46-17.27Q55.20-16.55 54.08-16.04L54.08-16.04Q56.23-13.72 57.95-11.91Q59.67-10.11 61.01-8.72Q62.35-7.32 63.34-6.31Q64.33-5.30 65.04-4.61L65.04-4.61Q66.70-2.98 67.36-2.44L67.36-2.44Q68.04-1.90 68.85-1.70Q69.65-1.49 70.41-1.49L70.41-1.49Q71.04-1.49 71.63-1.61Q72.22-1.73 72.56-1.88L72.56-1.88Q71.39-1.10 70.50-0.46Q69.60 0.17 68.86 0.62Q68.12 1.07 67.44 1.32Q66.77 1.56 66.06 1.56L66.06 1.56Q65.58 1.56 65.10 1.42Q64.62 1.27 64.10 0.95Q63.57 0.63 62.98 0.15Q62.38-0.34 61.67-1.03L61.67-1.03Q61.21-1.49 60.28-2.53Q59.35-3.56 58.20-4.85Q57.06-6.13 55.81-7.52Q54.57-8.91 53.47-10.10Q52.37-11.28 51.53-12.13Q50.68-12.99 50.37-13.18L50.37-13.18Q50-13.40 49.58-13.57L49.58-13.57Q49.24-13.72 48.79-13.83Q48.34-13.94 47.92-13.89L47.92-13.89L51.46-16.33Q52.69-16.33 53.80-16.89Q54.91-17.46 55.73-18.54Q56.54-19.63 57.01-21.19Q57.47-22.75 57.37-24.73L57.37-24.73Q57.32-25.90 56.85-26.87Q56.37-27.83 55.63-28.59Q54.88-29.35 53.93-29.91Q52.98-30.47 51.98-30.85Q50.98-31.23 49.99-31.41Q49.00-31.59 48.17-31.59L48.17-31.59Q47.61-31.59 46.95-31.57Q46.29-31.54 45.63-31.54L45.63-31.54Q45.56-26.98 45.47-23.39Q45.39-19.80 45.31-17.02Q45.24-14.23 45.18-12.22Q45.12-10.21 45.04-8.79L45.04-8.79Q44.90-5.47 44.78-4.30L44.78-4.30Q44.70-3.81 44.53-3.30L44.53-3.30Q44.38-2.86 44.13-2.34Q43.87-1.83 43.48-1.34L43.48-1.34Q44.53-1.22 45.37-1.21Q46.22-1.20 46.92-1.20L46.92-1.20Q48.61-1.20 49.40-1.29Q50.20-1.39 50.32-1.44L50.32-1.44Q49.05-0.81 47.92-0.27Q46.80 0.27 45.78 0.68Q44.75 1.10 43.81 1.33Q42.87 1.56 41.97 1.56L41.97 1.56L37.72 1.56L39.87 0.12Q40.04-0.51 40.20-1.39Q40.36-2.27 40.48-3.28Q40.60-4.30 40.69-5.38Q40.77-6.47 40.84-7.52L40.84-7.52Q40.99-9.94 41.06-12.65L41.06-12.65Q41.11-16.38 41.16-19.87L41.16-19.87Q41.19-21.36 41.21-22.94Q41.24-24.51 41.25-26.01Q41.26-27.51 41.28-28.87Q41.31-30.22 41.31-31.27L41.31-31.27L36.91-30.93L41.67-33.79Q42.09-33.72 42.59-33.70Q43.09-33.69 43.63-33.69L43.63-33.69Q44.68-33.69 45.70-33.78Q46.73-33.86 47.74-33.97Q48.75-34.08 49.73-34.18Q50.71-34.28 51.71-34.28L51.71-34.28Q53.66-34.28 55.54-33.62Q57.42-32.96 58.85-31.71Q60.28-30.47 61.08-28.69Q61.89-26.90 61.67-24.68ZM72.63-1.93L72.63-1.93Q72.58-1.90 72.58-1.90L72.58-1.90L72.56-1.90L72.56-1.88L72.56-1.90L72.58-1.90Q72.61-1.93 72.63-1.93ZM95.97-10.28L95.97-10.28Q95.97-7.96 95.03-6.19Q94.09-4.42 92.59-3.11Q91.09-1.81 89.21-0.92Q87.33-0.02 85.45 0.51Q83.57 1.05 81.86 1.28Q80.15 1.51 79.00 1.51L79.00 1.51L72.31 1.51Q72.68 1.49 72.97 1.29Q73.27 1.10 73.49 0.77Q73.71 0.44 73.86 0.04Q74.02-0.37 74.15-0.81L74.15-0.81Q74.41-1.78 74.46-3.08L74.46-3.08Q74.54-4.66 74.66-8.23L74.66-8.23Q74.71-9.74 74.78-11.84Q74.85-13.94 74.94-16.72Q75.02-19.51 75.15-23.05Q75.27-26.59 75.42-30.98L75.42-30.98Q74.51-30.93 73.35-30.91Q72.19-30.88 70.75-30.93L70.75-30.93L75.32-33.50Q76.15-33.42 77.08-33.37Q78.00-33.33 78.91-33.33L78.91-33.33Q79.81-33.33 80.62-33.34Q81.42-33.35 82.03-33.40L82.03-33.40Q82.74-33.45 83.35-33.50L83.35-33.50Q85.13-33.50 86.98-33.20Q88.82-32.91 90.31-32.12Q91.80-31.32 92.75-29.91Q93.70-28.49 93.70-26.25L93.70-26.25Q93.58-24.54 92.75-23.02L92.75-23.02Q92.38-22.36 91.85-21.69Q91.31-21.02 90.52-20.41Q89.72-19.80 88.65-19.29Q87.57-18.77 86.16-18.43L86.16-18.43Q86.57-18.48 86.95-18.51Q87.33-18.53 87.72-18.53L87.72-18.53Q89.26-18.53 90.44-18.18Q91.63-17.82 92.49-17.24Q93.36-16.65 93.96-15.91Q94.56-15.16 94.95-14.40L94.95-14.40Q95.85-12.57 95.97-10.28ZM78.81-4.49L78.81-4.49Q78.71-3.69 78.44-2.95L78.44-2.95Q78.22-2.32 77.84-1.71Q77.47-1.10 76.86-0.83L76.86-0.83Q79.30-0.61 81.03-0.52Q82.76-0.44 83.86-0.44L83.86-0.44Q84.42-0.44 84.85-0.45Q85.28-0.46 85.55-0.49L85.55-0.49Q85.86-0.51 86.06-0.54L86.06-0.54Q86.82-0.63 87.67-1.20Q88.53-1.76 89.28-2.70Q90.04-3.64 90.59-4.88Q91.14-6.13 91.31-7.64L91.31-7.64Q91.53-9.67 91.10-11.28Q90.67-12.89 89.60-14.01Q88.53-15.14 86.80-15.73Q85.08-16.33 82.71-16.33L82.71-16.33Q82.30-16.33 81.84-16.31Q81.37-16.28 80.91-16.24L80.91-16.24Q82.50-16.99 83.94-17.68Q85.38-18.36 86.46-19.32Q87.55-20.29 88.18-21.70Q88.82-23.12 88.82-25.34L88.82-25.34Q88.82-26.61 88.38-27.54Q87.94-28.47 87.21-29.10Q86.47-29.74 85.53-30.13Q84.59-30.52 83.58-30.74Q82.57-30.96 81.57-31.03Q80.57-31.10 79.71-31.13L79.71-31.13Q79.61-26.66 79.53-23.14Q79.44-19.63 79.36-16.92Q79.27-14.21 79.21-12.24Q79.15-10.28 79.08-8.89L79.08-8.89Q78.93-5.64 78.81-4.49Z"></path></g></g></svg>